<?xml version="1.0" standalone="no"?>
<!DOCTYPE svg PUBLIC "-//W3C//DTD SVG 20010904//EN"
 "http://www.w3.org/TR/2001/REC-SVG-20010904/DTD/svg10.dtd">
<svg version="1.0" xmlns="http://www.w3.org/2000/svg"
 width="260.000000pt" height="260.000000pt" viewBox="0 0 260.000000 260.000000"
 preserveAspectRatio="xMidYMid meet">
<metadata>
Created by potrace 1.14, written by Peter Selinger 2001-2017
</metadata>
<g transform="translate(0.000000,260.000000) scale(0.100000,-0.100000)"
fill="#000000" stroke="none">
<path d="M1051 2539 c-1 -12 -9 -16 -33 -14 -18 1 -42 -5 -52 -14 -16 -13 -18
-13 -11 -1 8 13 6 13 -8 2 -9 -8 -21 -11 -27 -7 -5 3 -13 0 -16 -9 -3 -8 -13
-17 -21 -20 -14 -6 -14 -4 -2 11 13 17 13 17 -7 0 -11 -9 -24 -14 -27 -10 -4
3 -7 1 -7 -5 0 -6 -6 -9 -14 -6 -7 3 -16 -2 -20 -11 -3 -9 -11 -13 -16 -10 -6
4 -17 1 -25 -5 -8 -7 -15 -9 -15 -4 0 5 -5 1 -11 -8 -5 -10 -19 -18 -29 -18
-11 0 -20 -5 -20 -11 0 -6 -6 -9 -12 -6 -14 4 -48 -44 -48 -68 0 -8 -4 -15
-10 -15 -5 0 -10 -5 -10 -11 0 -5 5 -7 11 -3 8 5 8 1 0 -13 -7 -14 -7 -24 2
-33 9 -10 9 -11 0 -6 -9 5 -13 0 -13 -13 0 -12 5 -21 10 -21 6 0 10 -13 10
-28 0 -15 6 -34 13 -41 10 -11 9 -12 -1 -6 -11 6 -11 3 0 -16 7 -13 18 -27 23
-31 7 -5 7 -8 0 -8 -5 0 -1 -7 9 -15 11 -8 16 -15 12 -15 -4 0 2 -15 13 -33
11 -19 17 -37 13 -41 -4 -4 -2 -7 3 -6 21 5 36 0 30 -9 -3 -5 6 -21 20 -35 14
-14 25 -29 25 -34 0 -6 7 -13 16 -16 8 -3 12 -10 9 -16 -3 -5 1 -10 9 -10 9 0
16 -9 16 -21 0 -11 4 -18 9 -14 6 3 17 -10 27 -30 9 -19 20 -32 25 -29 5 3 9
-2 9 -10 0 -9 5 -16 10 -16 6 0 10 -7 10 -15 0 -8 5 -15 10 -15 6 0 10 -7 10
-15 0 -8 5 -15 10 -15 6 0 10 -9 10 -20 0 -12 7 -20 18 -20 14 0 15 -2 2 -10
-12 -8 -12 -10 5 -10 17 0 17 -2 5 -10 -8 -5 -10 -10 -5 -10 15 0 36 -50 22
-50 -7 0 -5 -5 3 -10 8 -5 11 -10 5 -10 -5 0 -3 -5 6 -10 10 -6 15 -20 14 -35
-2 -14 0 -25 4 -25 4 0 6 -16 6 -35 -1 -19 1 -35 5 -35 8 0 6 -37 -2 -46 -4
-3 -4 -13 -1 -22 5 -11 3 -13 -8 -7 -12 8 -12 6 0 -9 12 -14 12 -19 2 -26 -10
-5 -10 -9 -2 -15 9 -5 9 -10 0 -21 -6 -8 -8 -14 -4 -14 4 0 2 -6 -4 -14 -9
-11 -9 -15 1 -19 10 -4 10 -6 1 -6 -7 -1 -13 -8 -13 -17 0 -9 -5 -12 -12 -8
-10 6 -10 4 0 -8 9 -12 10 -18 2 -23 -6 -4 -9 -13 -6 -20 2 -7 -2 -16 -9 -19
-8 -3 -12 -14 -10 -26 2 -11 -1 -20 -6 -20 -6 0 -8 -4 -5 -9 3 -5 -1 -14 -9
-21 -7 -6 -12 -17 -9 -24 3 -8 -2 -16 -10 -19 -8 -3 -13 -14 -12 -24 2 -10 -6
-24 -16 -31 -15 -11 -16 -17 -7 -28 8 -10 8 -14 0 -14 -6 0 -11 -7 -11 -16 0
-8 -5 -12 -11 -8 -8 4 -9 0 -4 -15 4 -13 2 -21 -5 -21 -6 0 -9 -4 -5 -9 3 -5
1 -12 -5 -16 -15 -9 -12 -27 3 -20 6 4 4 0 -7 -9 -10 -8 -15 -19 -11 -25 3 -6
2 -11 -3 -11 -5 0 -9 -6 -10 -12 -4 -36 -12 -81 -17 -88 -3 -5 1 -10 7 -13 9
-3 10 -8 2 -18 -10 -13 -10 -52 -1 -94 2 -11 0 -29 -6 -40 -10 -19 -9 -19 8
-5 17 14 18 13 12 -3 -3 -9 -2 -17 3 -17 6 0 9 -4 8 -8 -5 -13 25 -82 34 -82
5 0 6 -5 3 -10 -3 -6 -2 -10 4 -10 6 0 8 -7 4 -15 -3 -9 -2 -15 3 -14 22 4 33
-2 28 -14 -3 -8 7 -22 21 -33 14 -10 25 -25 25 -32 0 -7 8 -16 18 -19 31 -12
59 -38 54 -52 -3 -10 0 -12 12 -8 10 4 16 1 16 -8 0 -8 7 -15 15 -15 8 0 15
-5 15 -11 0 -8 5 -8 15 1 9 8 15 8 15 2 0 -17 33 -20 52 -5 12 11 18 12 24 2
4 -8 3 -10 -4 -5 -7 4 -12 2 -12 -3 0 -16 21 -13 42 6 11 10 19 13 18 8 -5
-22 1 -27 17 -14 9 8 14 9 10 3 -4 -7 4 -11 22 -10 21 1 27 4 20 13 -7 8 -5
10 8 7 23 -6 110 76 96 90 -4 3 -1 6 6 6 8 0 11 6 7 16 -3 8 -2 12 4 9 9 -6
14 8 11 27 0 5 3 8 8 8 5 0 7 13 6 29 -2 22 1 28 12 24 12 -5 13 -2 5 14 -6
10 -7 25 -3 32 5 7 8 40 6 72 -1 32 2 59 7 59 5 0 6 -5 2 -12 -4 -7 -3 -8 5
-4 8 5 9 12 3 19 -5 7 -12 24 -14 40 -4 20 -2 25 7 17 14 -11 14 17 0 39 -5
10 -4 12 3 7 7 -4 12 -2 12 3 0 6 -6 11 -12 11 -9 0 -8 4 2 10 13 9 13 10 0
10 -9 0 -11 3 -4 8 6 4 11 18 12 32 3 70 9 112 18 118 5 4 9 14 9 22 -1 8 2
20 6 25 4 6 9 19 11 30 1 11 11 28 20 39 9 10 15 27 13 37 -2 11 0 17 6 14 5
-4 14 -3 20 1 8 4 7 9 -2 15 -11 7 -10 9 4 9 9 0 17 7 17 15 0 8 5 15 11 15 5
0 7 5 3 12 -4 6 -3 9 2 5 5 -3 18 2 29 10 17 13 17 15 2 9 -11 -3 -16 -2 -12
4 3 6 13 10 21 10 8 0 14 5 14 11 0 5 5 7 10 4 6 -3 10 2 10 11 0 10 3 15 6
11 4 -3 12 -1 20 6 32 29 40 33 52 29 6 -2 12 1 12 7 0 6 9 11 19 11 11 0 21
4 23 10 2 5 17 11 33 13 17 2 36 7 43 11 7 4 17 4 22 1 6 -3 10 -2 10 4 0 5 8
8 18 6 9 -1 23 3 31 9 12 9 13 8 6 -3 -6 -10 -4 -12 5 -6 19 12 70 12 70 0 0
-5 4 -4 9 4 6 9 11 10 15 2 4 -6 12 -8 18 -5 17 11 78 11 78 1 0 -5 6 -5 13 1
7 6 18 7 26 3 8 -5 26 -5 41 -1 15 4 33 4 40 0 7 -4 24 -5 39 -1 14 4 33 7 41
6 8 0 21 6 28 15 12 13 13 12 8 -5 -5 -17 -3 -16 14 5 17 21 19 22 15 5 -3
-11 1 -6 9 10 9 20 11 34 5 42 -7 7 -6 14 1 18 6 4 9 20 6 35 -2 17 1 31 7 34
7 2 4 5 -6 5 -15 1 -16 4 -7 22 9 16 8 26 -4 44 -11 17 -13 26 -4 31 7 5 8 3
3 -6 -6 -9 -4 -11 5 -5 10 6 9 11 -5 22 -11 7 -13 13 -7 13 10 0 10 5 2 21 -9
15 -8 24 1 35 10 12 9 16 -9 21 -12 3 -22 9 -22 12 0 4 -7 8 -15 8 -8 0 -15
-5 -15 -11 0 -6 -5 -4 -10 4 -7 11 -10 11 -10 2 0 -7 -5 -10 -10 -7 -6 3 -13
0 -16 -9 -3 -8 -12 -12 -20 -9 -8 3 -22 -1 -31 -8 -12 -10 -15 -10 -9 -1 4 6
2 12 -4 12 -6 0 -13 -6 -16 -13 -4 -11 -18 -16 -61 -19 -7 -1 -13 -5 -13 -10
0 -4 -8 -8 -18 -8 -10 0 -24 -6 -31 -12 -11 -11 -13 -10 -7 2 4 8 0 6 -8 -4
-9 -11 -16 -16 -16 -12 0 5 -6 3 -14 -3 -10 -9 -16 -9 -21 -1 -5 8 -11 8 -21
-1 -7 -6 -12 -14 -10 -18 3 -4 -8 -6 -22 -5 -34 1 -63 -6 -58 -15 3 -4 -4 -8
-15 -8 -12 -1 -17 2 -12 10 3 7 -2 5 -13 -4 -10 -9 -25 -14 -32 -12 -22 8 -63
-6 -57 -20 4 -7 1 -5 -7 4 -14 17 -44 19 -67 5 -8 -5 -16 -3 -21 5 -7 10 -11
10 -24 0 -12 -10 -16 -11 -16 -1 0 7 -8 10 -20 7 -11 -3 -22 -1 -25 4 -3 4
-12 6 -19 3 -8 -3 -17 -1 -21 5 -3 6 -15 11 -26 11 -11 0 -27 7 -36 15 -8 8
-19 13 -24 10 -5 -4 -9 -1 -9 4 0 6 -6 11 -14 11 -7 0 -21 10 -30 23 -9 12
-14 16 -11 10 3 -7 2 -13 -3 -13 -11 0 -26 30 -23 43 1 5 -3 6 -9 2 -5 -3 -10
-1 -10 5 0 6 -4 8 -10 5 -5 -3 -10 -1 -10 5 0 6 -11 22 -25 36 -14 14 -25 32
-25 40 0 8 -4 12 -10 9 -5 -3 -10 2 -10 13 0 11 -8 30 -18 43 -11 13 -18 34
-17 46 1 12 -2 20 -7 17 -8 -5 -10 1 -12 53 -1 17 -5 35 -10 40 -5 4 -6 3 -2
-4 4 -7 2 -13 -3 -13 -13 0 -14 10 -2 30 6 8 7 19 3 25 -4 5 -7 19 -7 30 0 11
-4 26 -8 33 -5 6 -4 12 2 12 7 0 8 9 3 23 -5 12 -7 41 -6 64 1 30 -2 41 -10
36 -6 -4 -5 0 2 9 10 13 10 18 1 24 -8 5 -9 3 -4 -6 5 -9 4 -11 -4 -6 -9 6 -9
11 -1 21 8 10 8 15 0 20 -7 4 -9 16 -7 27 3 11 0 21 -9 25 -8 3 -14 9 -14 15
0 5 5 6 10 3 6 -3 10 -1 10 4 0 6 -4 11 -10 11 -5 0 -10 9 -10 20 0 11 -6 20
-12 20 -9 0 -8 4 2 10 13 8 12 10 -4 10 -11 0 -16 3 -13 7 4 3 2 12 -4 20 -6
7 -8 13 -3 13 4 0 -3 12 -17 27 -13 14 -18 23 -12 19 9 -5 11 -2 7 8 -3 9 -10
16 -15 16 -5 0 -9 7 -9 15 0 8 -4 15 -9 15 -5 0 -13 9 -16 20 -3 11 -14 20
-23 20 -15 0 -15 2 -2 10 11 7 11 10 2 10 -7 0 -10 5 -6 12 4 6 3 8 -4 4 -6
-3 -14 -1 -17 5 -4 5 -13 8 -20 5 -8 -3 -16 0 -19 7 -2 7 -5 5 -5 -4z"/>
<path d="M1487 2544 c-4 -4 -2 -14 3 -24 5 -10 6 -20 3 -24 -3 -3 -1 -6 6 -6
7 0 9 -4 6 -10 -3 -5 1 -10 10 -10 9 0 13 -4 10 -10 -3 -5 -1 -10 5 -10 6 0 8
-4 5 -10 -3 -5 -1 -10 4 -10 6 0 11 -9 11 -21 0 -11 5 -17 10 -14 6 3 10 -1
10 -9 0 -9 5 -16 12 -16 6 0 9 -3 5 -6 -3 -4 4 -15 16 -26 12 -11 16 -17 10
-13 -9 4 -11 1 -7 -9 3 -9 10 -16 15 -16 5 0 9 -6 9 -13 0 -7 9 -18 20 -25 12
-7 18 -17 15 -22 -3 -5 6 -20 19 -33 14 -14 22 -28 19 -31 -3 -3 2 -8 11 -12
9 -3 16 -11 16 -18 0 -6 9 -18 19 -26 11 -7 18 -17 15 -22 -3 -4 1 -8 8 -8 8
0 20 -9 28 -20 8 -11 20 -20 27 -20 7 0 13 -4 13 -9 0 -5 13 -14 30 -21 16 -7
28 -16 25 -20 -3 -4 7 -7 22 -7 14 0 30 -7 34 -15 5 -9 19 -14 34 -13 14 2 25
-1 25 -7 0 -6 9 -8 21 -5 16 4 19 2 14 -11 -5 -13 -2 -13 14 2 18 17 21 17 27
3 4 -12 11 -14 29 -7 14 5 26 5 34 -3 8 -8 11 -8 11 1 0 8 7 9 24 2 15 -5 27
-5 35 3 6 6 11 7 11 3 0 -5 6 -3 14 3 11 9 16 9 22 0 5 -8 3 -9 -6 -4 -8 5
-11 4 -6 -3 4 -6 13 -9 21 -6 8 4 12 11 8 18 -4 6 1 5 11 -3 15 -12 17 -12 14
0 -2 8 2 13 8 12 6 -1 11 5 11 13 0 8 -4 14 -9 14 -4 0 -8 4 -8 10 0 9 -19 35
-47 65 -7 7 -9 15 -6 19 4 3 1 6 -6 6 -7 0 -9 5 -6 10 3 6 -1 10 -9 10 -8 0
-18 9 -21 20 -4 11 -11 18 -16 15 -5 -4 -9 -2 -9 4 0 13 -88 100 -95 93 -3 -3
-5 2 -5 11 0 9 -7 17 -15 17 -7 0 -19 8 -24 18 -6 9 -11 13 -11 8 0 -5 -8 1
-19 12 -10 12 -21 19 -25 15 -3 -3 -6 1 -6 11 0 9 -4 15 -9 12 -4 -3 -19 3
-31 14 -22 19 -35 24 -52 21 -5 0 -8 7 -8 16 0 15 -2 16 -10 3 -9 -13 -10 -13
-11 0 -1 8 -1 18 -1 21 1 3 -11 4 -25 1 -18 -3 -24 -1 -19 7 4 6 4 11 -1 12
-27 2 -47 9 -70 24 -17 12 -23 13 -18 4 5 -8 -1 -5 -13 5 -20 18 -45 25 -94
27 -10 0 -21 5 -24 11 -5 7 -2 8 6 3 9 -5 11 -4 6 4 -6 9 -11 9 -22 0 -11 -9
-14 -9 -14 1 0 8 -3 10 -6 7 -4 -3 -15 -2 -25 3 -12 7 -19 6 -23 -3 -3 -9 -9
-7 -19 5 -8 10 -17 15 -20 12z"/>
<path d="M333 2105 c-6 -7 -9 -16 -6 -19 4 -3 2 -6 -3 -6 -5 0 -20 -18 -34
-39 -13 -22 -28 -37 -32 -35 -5 3 -8 2 -7 -3 3 -20 -3 -34 -23 -54 -13 -12
-17 -19 -11 -15 9 5 11 2 7 -8 -3 -9 -11 -13 -17 -9 -6 4 -8 -2 -5 -15 4 -13
1 -25 -7 -30 -7 -4 -15 -14 -17 -22 -2 -8 -8 -20 -15 -27 -6 -7 -10 -24 -9
-38 3 -21 1 -23 -11 -13 -8 6 -13 7 -12 2 5 -27 -2 -64 -11 -59 -13 8 -8 -18
5 -27 6 -5 4 -8 -5 -8 -15 0 -17 -6 -22 -65 -1 -18 -6 -24 -16 -20 -11 4 -12
2 -5 -7 8 -12 10 -34 3 -40 -1 -2 -4 -29 -5 -62 -2 -32 -7 -61 -11 -65 -12 -8
-11 -34 1 -43 6 -5 5 -8 -2 -8 -7 0 -13 -5 -13 -11 0 -5 4 -8 9 -4 5 3 13 0
17 -6 4 -8 3 -9 -4 -5 -7 4 -13 4 -13 -1 -6 -35 -5 -53 2 -53 5 0 9 -5 9 -11
0 -5 -4 -8 -8 -5 -4 2 -8 -6 -8 -20 0 -17 4 -23 14 -19 8 3 10 0 6 -7 -7 -11
-7 -46 -1 -113 1 -11 7 -23 12 -27 6 -5 5 -8 -3 -8 -7 0 -10 -5 -7 -10 4 -6
11 -8 16 -5 5 3 6 -1 2 -10 -3 -10 0 -21 8 -26 8 -5 9 -9 3 -9 -7 0 -9 -10 -6
-25 2 -14 8 -22 12 -20 5 3 12 0 16 -6 4 -7 3 -9 -4 -5 -6 3 -13 2 -17 -4 -3
-5 1 -10 9 -10 9 0 15 -3 15 -7 -4 -23 2 -54 9 -49 4 2 7 -7 7 -22 -1 -15 7
-35 17 -45 10 -10 16 -22 13 -28 -4 -5 -1 -9 5 -9 6 0 9 -4 5 -9 -3 -5 1 -16
9 -24 8 -8 12 -17 9 -21 -4 -3 -1 -6 5 -6 11 0 28 -38 24 -53 -1 -5 2 -6 7 -3
9 6 38 -52 33 -67 -1 -5 2 -6 8 -2 5 3 15 -5 21 -19 8 -16 17 -22 27 -19 9 4
13 2 9 -3 -3 -6 -1 -16 5 -24 8 -12 9 -12 5 2 -3 9 -1 19 6 22 9 3 8 5 -1 5
-8 1 -10 7 -5 19 10 21 10 43 0 59 -5 8 -3 13 5 13 9 0 9 3 -2 10 -8 5 -10 10
-4 10 6 0 10 14 9 30 -1 17 3 30 8 30 6 0 7 3 4 6 -3 4 -1 16 5 28 7 11 12 26
13 31 0 6 5 19 11 30 6 11 11 32 10 46 -1 18 3 26 14 25 9 -1 14 6 12 17 -2 9
2 17 8 17 6 0 8 5 5 10 -3 6 -1 10 5 10 6 0 9 4 6 8 -3 5 8 27 24 49 18 25 28
47 24 57 -5 12 -2 15 12 9 12 -4 15 -3 10 5 -4 7 -2 12 3 12 6 0 11 9 11 21 0
12 4 18 11 13 7 -4 10 -1 7 7 -3 8 4 25 16 38 11 13 15 21 8 17 -7 -4 -3 9 8
29 11 20 21 44 23 53 1 9 7 23 11 31 7 10 6 12 -4 6 -10 -6 -12 -4 -7 9 4 10
7 20 7 22 0 3 4 3 8 0 7 -4 8 28 2 44 -1 3 -2 8 -1 13 0 4 -3 7 -8 7 -5 0 -7
10 -3 22 4 16 2 19 -9 13 -11 -7 -12 -6 -3 6 6 8 9 23 7 34 -2 11 -5 28 -7 37
-1 10 -6 21 -11 25 -4 5 -5 2 0 -6 5 -9 4 -12 -2 -8 -6 4 -9 18 -8 32 2 14 -1
25 -6 25 -5 0 -8 3 -7 8 1 8 -9 39 -23 64 -12 23 -11 37 1 18 5 -8 10 -10 10
-4 0 6 -7 17 -15 24 -8 7 -15 21 -15 31 0 11 -5 19 -12 19 -6 0 -8 3 -5 6 3 4
1 16 -5 28 -7 11 -13 24 -14 29 -1 4 -3 10 -4 15 -1 4 -2 10 -1 15 0 4 -4 7
-10 7 -6 0 -9 7 -5 15 3 8 2 14 -2 14 -19 -3 -22 3 -11 22 6 12 7 19 2 16 -11
-7 -27 13 -31 38 -2 11 -8 22 -12 25 -5 3 -11 17 -13 30 -6 36 -18 61 -27 55
-4 -2 -6 7 -4 21 2 18 -2 24 -11 20 -8 -3 -15 -1 -17 4 -2 4 -8 2 -15 -5z m12
-1494 c3 -5 2 -12 -3 -15 -5 -3 -9 1 -9 9 0 17 3 19 12 6z"/>
<path d="M55 1449 c-4 -6 -5 -12 -2 -15 2 -3 7 2 10 11 7 17 1 20 -8 4z"/>
<path d="M2420 1022 c0 -7 -4 -10 -10 -7 -5 3 -10 1 -10 -5 0 -7 -6 -8 -18 -1
-13 7 -23 6 -31 -2 -10 -10 -28 -14 -81 -18 -8 -1 -20 -6 -27 -11 -7 -5 -22
-7 -34 -3 -13 5 -19 3 -15 -3 3 -5 -2 -16 -11 -23 -12 -10 -14 -10 -9 -1 12
19 -6 14 -31 -10 -22 -21 -24 -21 -18 -3 5 17 4 17 -7 -2 -7 -12 -17 -23 -23
-24 -18 -3 -55 -31 -55 -41 0 -5 -12 -20 -26 -33 -15 -14 -23 -25 -19 -25 5 0
0 -7 -11 -16 -10 -8 -12 -13 -4 -9 9 4 7 0 -4 -9 -10 -8 -15 -19 -11 -25 3 -6
2 -11 -3 -11 -5 0 -9 -6 -10 -12 -1 -16 -10 -53 -12 -53 -7 0 -5 -127 2 -131
4 -3 4 -13 -1 -22 -10 -19 10 -57 24 -44 5 4 4 0 -1 -8 -11 -20 -14 -40 -5
-40 5 0 7 -12 6 -27 -1 -16 2 -34 8 -41 5 -6 6 -12 1 -12 -5 0 -9 -11 -9 -24
0 -18 3 -22 13 -14 6 6 12 7 12 2 0 -5 7 0 16 11 8 11 16 18 17 15 1 -2 12 2
24 11 13 9 20 19 16 22 -3 4 0 7 7 7 7 0 21 10 31 22 11 11 19 17 20 12 0 -5
4 1 9 14 5 12 20 26 32 31 13 5 22 12 22 17 -1 5 2 8 7 6 5 -1 9 7 9 19 0 11
3 18 8 16 4 -3 16 5 27 16 11 11 13 17 5 12 -8 -4 -2 4 14 19 16 14 25 26 20
26 -5 0 2 10 16 21 14 11 19 17 11 13 -8 -4 0 11 19 34 18 23 31 45 27 48 -8
8 16 33 26 27 4 -2 6 7 3 21 -3 19 -1 23 11 19 10 -4 14 -2 10 4 -4 6 0 16 8
23 8 7 15 17 15 23 0 6 -7 2 -16 -9 -9 -10 -7 -3 4 16 11 19 21 40 22 45 1 6
5 9 9 8 4 -1 7 11 6 28 -1 20 3 29 14 29 14 0 14 2 1 10 -10 6 -11 10 -2 10 6
0 12 5 12 11 0 5 -6 7 -12 4 -7 -4 -6 -1 3 7 11 9 14 19 8 33 -4 11 -8 14 -8
8 -1 -15 -22 -13 -33 2 -5 6 -8 5 -8 -3z"/>
</g>
</svg>
